<?xml version="1.0" encoding="iso-8859-1"?>
<!-- Uploaded to: SVG Repo, www.svgrepo.com, Generator: SVG Repo Mixer Tools -->
<svg height="800px" width="800px" version="1.1" id="Layer_1" xmlns="http://www.w3.org/2000/svg" xmlns:xlink="http://www.w3.org/1999/xlink" 
	 viewBox="0 0 309.267 309.267" xml:space="preserve">
<g>
	<path style="fill:#3DB39E;" d="M38.658,0h164.23l87.049,86.711v203.227c0,10.679-8.659,19.329-19.329,19.329H38.658
		c-10.67,0-19.329-8.65-19.329-19.329V19.329C19.329,8.65,27.989,0,38.658,0z"/>
	<path style="fill:#2F8A78;" d="M289.658,86.981h-67.372c-10.67,0-19.329-8.659-19.329-19.329V0.193L289.658,86.981z"/>
	<path style="fill:#8BD1C5;" d="M77.317,125.64v125.64H231.95V125.64H77.317z M193.292,135.304v19.329h-19.329v-19.329H193.292z
		 M135.304,183.627h-19.329v-19.32h19.329V183.627z M144.969,164.308h19.329v19.32h-19.329V164.308z M135.304,193.302v19.32h-19.329
		v-19.32H135.304z M144.969,193.302h19.329v19.32h-19.329V193.302z M173.963,193.302h19.329v19.32h-19.329V193.302z
		 M173.963,183.627v-19.32h19.329v19.32L173.963,183.627L173.963,183.627z M164.298,135.304v19.329h-19.329v-19.329H164.298z
		 M135.304,135.304v19.329h-19.329v-19.329H135.304z M86.981,135.304h19.329v19.329H86.981V135.304z M86.981,164.308h19.329v19.32
		H86.981V164.308z M86.981,193.302h19.329v19.32H86.981V193.302z M86.981,241.625v-19.339h19.329v19.339H86.981z M115.975,241.625
		v-19.339h19.329v19.339H115.975z M144.969,241.625v-19.339h19.329v19.339H144.969z M173.963,241.625v-19.339h19.329v19.339H173.963
		z M222.286,241.625h-19.329v-19.339h19.329V241.625z M222.286,212.621h-19.329v-19.32h19.329V212.621z M222.286,183.627h-19.329
		v-19.32h19.329V183.627z M222.286,154.634h-19.329v-19.329h19.329V154.634z"/>
</g>
</svg>