<svg width="136" height="119" viewBox="0 0 136 119" fill="none" xmlns="http://www.w3.org/2000/svg">
<path d="M31.9584 87.7963L31.9574 87.7971C31.4992 88.169 31.1319 88.6612 30.8808 89.2257C30.6296 89.7901 30.5 90.4145 30.5 91.0455C30.5 91.6765 30.6296 92.3008 30.8808 92.8653C31.1319 93.4298 31.4992 93.9219 31.9574 94.2938L31.9584 94.2946L51.0598 109.717C51.0608 109.718 51.0618 109.719 51.0629 109.72C51.4322 110.027 51.8544 110.248 52.3064 110.366C52.7599 110.485 53.23 110.495 53.6877 110.397C54.1451 110.299 54.5763 110.096 54.9571 109.804C55.3377 109.512 55.6603 109.137 55.9097 108.706C56.1591 108.274 56.3317 107.792 56.4201 107.288C56.5085 106.783 56.5115 106.264 56.4289 105.758C56.3464 105.252 56.1795 104.768 55.9353 104.333C55.6914 103.898 55.3742 103.519 54.9982 103.222C54.9976 103.221 54.997 103.221 54.9963 103.22L42.3343 93.0123C41.092 92.0108 41.0933 90.1175 42.3369 89.1176L54.9967 78.9396C54.9972 78.9392 54.9977 78.9388 54.9982 78.9384C55.3778 78.6375 55.6974 78.2539 55.9419 77.8137C56.1867 77.373 56.3525 76.8822 56.4321 76.3707C56.5117 75.8592 56.504 75.3343 56.4093 74.8261C56.3148 74.3192 56.1351 73.8361 55.878 73.4058C55.3787 72.5441 54.5949 71.9256 53.6792 71.7226C52.7584 71.5186 51.8163 71.7602 51.0652 72.3694C51.0651 72.3695 51.065 72.3696 51.0648 72.3697L31.9584 87.7963ZM84.9343 72.3691L84.9329 72.368C84.1733 71.7589 83.223 71.5219 82.2969 71.7335C81.3749 71.9441 80.588 72.5734 80.0895 73.4462C79.5917 74.3179 79.4111 75.3771 79.5768 76.3951C79.7424 77.4125 80.2452 78.3316 81.0002 78.9371C81.0004 78.9374 81.0007 78.9376 81.001 78.9378L93.6803 89.1881C94.918 90.1887 94.918 92.0758 93.6803 93.0764L80.9994 103.328L80.9993 103.328L80.9937 103.333C80.2597 103.944 79.776 104.857 79.6228 105.861C79.4696 106.866 79.6549 107.906 80.1494 108.762C80.6446 109.619 81.421 110.236 82.3292 110.444C83.2415 110.653 84.1781 110.424 84.9302 109.829L84.9343 109.826L104.042 94.3987L104.043 94.3979C104.501 94.026 104.868 93.5338 105.119 92.9694C105.37 92.4049 105.5 91.7806 105.5 91.1496C105.5 90.5185 105.37 89.8942 105.119 89.3298C104.896 88.8273 104.58 88.3822 104.19 88.0282C104.153 87.9257 104.088 87.8339 104.001 87.7637L84.9343 72.3691ZM73.8199 63.6119L73.8199 63.6119L73.817 63.6111C73.4069 63.4911 72.9791 63.4679 72.5599 63.5435C72.1409 63.6192 71.7435 63.7912 71.3898 64.0449C71.0365 64.2983 70.7343 64.6279 70.4971 65.0109C70.2601 65.3935 70.0914 65.8239 69.9977 66.2768C69.9977 66.2772 69.9976 66.2776 69.9975 66.278L59.9322 114.118L59.932 114.119C59.8375 114.572 59.8195 115.042 59.8788 115.503C59.938 115.963 60.0736 116.409 60.2802 116.813C60.4868 117.217 60.7614 117.575 61.092 117.862C61.2895 118.034 61.5048 118.178 61.7336 118.292C62.0908 118.471 62.4708 118.5 62.7784 118.5L62.9964 118.5L62.9982 118.5C63.7183 118.497 64.4044 118.21 64.95 117.705C65.4938 117.201 65.8688 116.51 66.0311 115.747L66.0314 115.745L76.0971 67.8687L76.0987 67.8615L76.1 67.8542C76.2607 66.9594 76.1241 66.022 75.7102 65.2344C75.2959 64.4461 74.6257 63.853 73.8199 63.6119Z" fill="#AA1D2B" stroke="#AA1D2B"/>
<path d="M68 0C34.4128 0 6.51311 94.381 0.992181 114.326C0.469027 116.216 1.91123 118 3.87226 118H15.5921C16.9988 118 18.2129 117.047 18.535 115.678C22.0856 100.583 42.8794 17 68 17C93.1206 17 113.914 100.583 117.465 115.678C117.787 117.047 119.001 118 120.408 118H132.128C134.089 118 135.531 116.216 135.008 114.326C129.487 94.381 101.587 0 68 0Z" fill="#AA1D2B"/>
</svg>
