<?xml version="1.0" encoding="iso-8859-1"?>
<!-- Uploaded to: SVG Repo, www.svgrepo.com, Generator: SVG Repo Mixer Tools -->
<svg xmlns="http://www.w3.org/2000/svg" xmlns:xlink="http://www.w3.org/1999/xlink" version="1.1" id="Layer_1"  viewBox="0 0 481.5 481.5" xml:space="preserve" width="512" height="512">
<g id="_x30_4._Antique_building_1_">
	<g>
		<g id="XMLID_5_">
			<g>
				<g>
					<polygon style="fill:#ffffff;" points="463.75,430.57 463.75,471.5 17.75,471.5 17.75,430.57 37.63,430.57 443.87,430.57             "/>
				</g>
				<g>
					<path style="fill:#ffffff;" d="M463.75,135.44h-19.88H37.63H17.75L240.75,10L463.75,135.44z M170.45,95.44h140.6l-70.3-39.55       L170.45,95.44z"/>
				</g>
				<g>
					<polygon style="fill:#ffffff;" points="443.87,389.64 443.87,430.57 37.63,430.57 37.63,389.64 68.98,389.64 134.5,389.64        207.99,389.64 273.51,389.64 347,389.64 412.52,389.64      "/>
				</g>
				<g>
					<polygon style="fill:#ffffff;" points="443.87,135.44 443.87,176.37 412.52,176.37 347,176.37 273.51,176.37 207.99,176.37        134.5,176.37 68.98,176.37 37.63,176.37 37.63,135.44      "/>
				</g>
				<g>
					<polygon style="fill:#ffffff;" points="412.52,356.85 412.52,389.64 347,389.64 347,356.85 355.93,356.85 403.59,356.85             "/>
				</g>
				<g>
					<polygon style="fill:#ffffff;" points="412.52,176.37 412.52,209.16 399.25,209.16 360.27,209.16 347,209.16 347,176.37             "/>
				</g>
				<g>
					<polygon style="fill:#ffffff;" points="402.37,315.4 403.59,356.85 355.93,356.85 360.27,209.16 399.25,209.16      "/>
				</g>
				<g>
					<polygon style="fill:#ffffff;" points="311.05,95.44 170.45,95.44 240.75,55.89      "/>
				</g>
				<g>
					<polygon style="fill:#ffffff;" points="273.51,356.85 273.51,389.64 207.99,389.64 207.99,356.85 216.92,356.85 264.58,356.85             "/>
				</g>
				<g>
					<polygon style="fill:#ffffff;" points="273.51,176.37 273.51,209.16 260.24,209.16 221.26,209.16 207.99,209.16 207.99,176.37             "/>
				</g>
				<g>
					<polygon style="fill:#ffffff;" points="263.36,315.4 264.58,356.85 216.92,356.85 221.26,209.16 260.24,209.16      "/>
				</g>
				<g>
					<polygon style="fill:#ffffff;" points="134.5,356.85 134.5,389.64 68.98,389.64 68.98,356.85 77.91,356.85 125.57,356.85             "/>
				</g>
				<g>
					<polygon style="fill:#ffffff;" points="134.5,176.37 134.5,209.16 121.23,209.16 82.25,209.16 68.98,209.16 68.98,176.37             "/>
				</g>
				<g>
					<polygon style="fill:#ffffff;" points="124.35,315.4 125.57,356.85 77.91,356.85 82.25,209.16 121.23,209.16      "/>
				</g>
			</g>
			<g>
				<g>
					
						<rect x="69.647" y="252.281" transform="matrix(0.0294 0.9996 -0.9996 0.0294 381.3532 131.8441)" style="fill:#5E2A41;" width="106.286" height="20"/>
				</g>
				<g>
					
						<rect x="70.08" y="209.129" transform="matrix(0.9996 0.0294 -0.0294 0.9996 8.3536 -2.2317)" style="fill:#5E2A41;" width="20" height="147.753"/>
				</g>
				<g>
					
						<rect x="104.226" y="326.126" transform="matrix(0.0294 0.9996 -0.9996 0.0294 457.2645 201.3329)" style="fill:#5E2A41;" width="41.467" height="20"/>
				</g>
				<g>
					<path style="fill:#5E2A41;" d="M134.5,218.661h-13.27c-5.247,0-9.5-4.253-9.5-9.5c0-5.247,4.253-9.5,9.5-9.5H125v-23.29       c0-5.247,4.253-9.5,9.5-9.5c5.247,0,9.5,4.253,9.5,9.5v32.79C144,214.408,139.747,218.661,134.5,218.661z"/>
				</g>
				<g>
					<rect x="82.25" y="199.661" style="fill:#5E2A41;" width="38.98" height="19"/>
				</g>
				<g>
					<path style="fill:#5E2A41;" d="M82.25,218.661H68.98c-5.247,0-9.5-4.253-9.5-9.5v-32.79c0-5.247,4.253-9.5,9.5-9.5       c5.247,0,9.5,4.253,9.5,9.5v23.29h3.77c5.247,0,9.5,4.253,9.5,9.5C91.75,214.408,87.497,218.661,82.25,218.661z"/>
				</g>
				<g>
					<path style="fill:#5E2A41;" d="M68.98,399.14c-5.247,0-9.5-4.253-9.5-9.5v-32.79c0-5.247,4.253-9.5,9.5-9.5h8.93       c5.246,0,9.5,4.253,9.5,9.5c0,5.056-3.949,9.189-8.93,9.483v23.307C78.48,394.887,74.227,399.14,68.98,399.14z"/>
				</g>
				<g>
					<rect x="77.91" y="347.35" style="fill:#5E2A41;" width="47.66" height="19"/>
				</g>
				<g>
					<path style="fill:#5E2A41;" d="M134.5,399.14c-5.247,0-9.5-4.253-9.5-9.5v-23.307c-4.981-0.295-8.93-4.428-8.93-9.483       c0-5.247,4.253-9.5,9.5-9.5h8.93c5.247,0,9.5,4.253,9.5,9.5v32.79C144,394.887,139.747,399.14,134.5,399.14z"/>
				</g>
				<g>
					
						<rect x="208.657" y="252.28" transform="matrix(0.0294 0.9996 -0.9996 0.0294 516.2824 -7.1064)" style="fill:#5E2A41;" width="106.286" height="20.001"/>
				</g>
				<g>
					
						<rect x="209.09" y="209.129" transform="matrix(0.9996 0.0294 -0.0294 0.9996 8.4137 -6.3179)" style="fill:#5E2A41;" width="20" height="147.753"/>
				</g>
				<g>
					
						<rect x="243.237" y="326.125" transform="matrix(0.0294 0.9996 -0.9996 0.0294 592.1858 62.3826)" style="fill:#5E2A41;" width="41.467" height="20.001"/>
				</g>
				<g>
					<path style="fill:#5E2A41;" d="M273.51,218.661h-13.27c-5.247,0-9.5-4.253-9.5-9.5c0-5.247,4.253-9.5,9.5-9.5h3.77v-23.29       c0-5.247,4.253-9.5,9.5-9.5c5.247,0,9.5,4.253,9.5,9.5v32.79C283.01,214.408,278.757,218.661,273.51,218.661z"/>
				</g>
				<g>
					<rect x="221.26" y="199.661" style="fill:#5E2A41;" width="38.98" height="19"/>
				</g>
				<g>
					<path style="fill:#5E2A41;" d="M221.26,218.661h-13.27c-5.246,0-9.5-4.253-9.5-9.5v-32.79c0-5.247,4.254-9.5,9.5-9.5       c5.247,0,9.5,4.253,9.5,9.5v23.29h3.77c5.246,0,9.5,4.253,9.5,9.5C230.76,214.408,226.506,218.661,221.26,218.661z"/>
				</g>
				<g>
					<path style="fill:#5E2A41;" d="M207.99,399.14c-5.246,0-9.5-4.253-9.5-9.5v-32.79c0-5.247,4.254-9.5,9.5-9.5h8.93       c5.247,0,9.5,4.253,9.5,9.5c0,5.056-3.949,9.189-8.93,9.483v23.307C217.49,394.887,213.237,399.14,207.99,399.14z"/>
				</g>
				<g>
					<rect x="216.92" y="347.35" style="fill:#5E2A41;" width="47.66" height="19"/>
				</g>
				<g>
					<path style="fill:#5E2A41;" d="M273.51,399.14c-5.247,0-9.5-4.253-9.5-9.5v-23.307c-4.982-0.295-8.93-4.428-8.93-9.483       c0-5.247,4.253-9.5,9.5-9.5h8.93c5.247,0,9.5,4.253,9.5,9.5v32.79C283.01,394.887,278.757,399.14,273.51,399.14z"/>
				</g>
				<g>
					
						<rect x="347.667" y="252.28" transform="matrix(0.0294 0.9996 -0.9996 0.0294 651.2117 -146.0561)" style="fill:#5E2A41;" width="106.286" height="20.001"/>
				</g>
				<g>
					
						<rect x="348.099" y="209.129" transform="matrix(0.9996 0.0294 -0.0294 0.9996 8.4733 -10.4036)" style="fill:#5E2A41;" width="20.001" height="147.753"/>
				</g>
				<g>
					
						<rect x="382.246" y="326.125" transform="matrix(0.0294 0.9996 -0.9996 0.0294 727.106 -76.5676)" style="fill:#5E2A41;" width="41.467" height="20.001"/>
				</g>
				<g>
					<path style="fill:#5E2A41;" d="M412.52,218.661h-13.27c-5.247,0-9.5-4.253-9.5-9.5c0-5.247,4.253-9.5,9.5-9.5h3.77v-23.29       c0-5.247,4.253-9.5,9.5-9.5c5.247,0,9.5,4.253,9.5,9.5v32.79C422.02,214.408,417.767,218.661,412.52,218.661z"/>
				</g>
				<g>
					<rect x="360.27" y="199.661" style="fill:#5E2A41;" width="38.98" height="19"/>
				</g>
				<g>
					<path style="fill:#5E2A41;" d="M360.27,218.661H347c-5.247,0-9.5-4.253-9.5-9.5v-32.79c0-5.247,4.253-9.5,9.5-9.5       s9.5,4.253,9.5,9.5v23.29h3.77c5.247,0,9.5,4.253,9.5,9.5C369.77,214.408,365.517,218.661,360.27,218.661z"/>
				</g>
				<g>
					<path style="fill:#5E2A41;" d="M347,399.14c-5.247,0-9.5-4.253-9.5-9.5v-32.79c0-5.247,4.253-9.5,9.5-9.5h8.93       c5.247,0,9.5,4.253,9.5,9.5c0,5.056-3.948,9.189-8.93,9.483v23.307C356.5,394.887,352.247,399.14,347,399.14z"/>
				</g>
				<g>
					<rect x="355.93" y="347.35" style="fill:#5E2A41;" width="47.66" height="19"/>
				</g>
				<g>
					<path style="fill:#5E2A41;" d="M412.52,399.14c-5.247,0-9.5-4.253-9.5-9.5v-23.307c-4.981-0.295-8.93-4.428-8.93-9.483       c0-5.247,4.253-9.5,9.5-9.5h8.93c5.247,0,9.5,4.253,9.5,9.5v32.79C422.02,394.887,417.767,399.14,412.52,399.14z"/>
				</g>
				<g>
					<path style="fill:#5E2A41;" d="M443.87,440.571c-5.522,0-10-4.478-10-10V399.64H47.63v30.931c0,5.522-4.477,10-10,10       c-5.523,0-10-4.478-10-10V389.64c0-5.522,4.477-10,10-10h406.24c5.522,0,10,4.478,10,10v40.931       C453.87,436.093,449.393,440.571,443.87,440.571z"/>
				</g>
				<g>
					<path style="fill:#5E2A41;" d="M463.75,145.441h-19.88c-5.522,0-10-4.477-10-10c0-1.691,0.42-3.284,1.161-4.682L240.75,21.474       L46.469,130.759c0.741,1.397,1.161,2.99,1.161,4.682c0,5.523-4.477,10-10,10H17.75c-4.547,0-8.522-3.067-9.673-7.466       c-1.152-4.398,0.808-9.021,4.771-11.25l223-125.44c3.045-1.713,6.762-1.713,9.805,0l223,125.44       c3.963,2.229,5.924,6.852,4.772,11.25C472.272,142.373,468.297,145.441,463.75,145.441z"/>
				</g>
				<g>
					<path style="fill:#5E2A41;" d="M311.05,104.441h-140.6c-4.092,0-7.669-2.761-8.706-6.719       c-1.037-3.959,0.727-8.118,4.293-10.125l70.3-39.551c2.74-1.541,6.086-1.541,8.826,0l70.3,39.551       c3.566,2.007,5.33,6.166,4.293,10.125C318.719,101.68,315.142,104.441,311.05,104.441z M204.802,86.441h71.895L240.75,66.216       L204.802,86.441z"/>
				</g>
				<g>
					<path style="fill:#5E2A41;" d="M443.87,186.371H37.63c-5.523,0-10-4.477-10-10v-40.93c0-5.522,4.477-10,10-10h406.24       c5.522,0,10,4.478,10,10v40.93C453.87,181.893,449.393,186.371,443.87,186.371z M47.63,166.371h386.24v-20.93H47.63V166.371z"/>
				</g>
				<g>
					<path style="fill:#5E2A41;" d="M463.75,481.5h-446c-5.523,0-10-4.478-10-10v-40.93c0-5.522,4.477-10,10-10h446       c5.523,0,10,4.478,10,10v40.93C473.75,477.023,469.273,481.5,463.75,481.5z M27.75,461.5h426v-20.93h-426V461.5z"/>
				</g>
			</g>
		</g>
	</g>
</g>















</svg>