<?xml version="1.0" encoding="utf-8"?>
<!-- Generator: Adobe Illustrator 18.0.0, SVG Export Plug-In . SVG Version: 6.00 Build 0)  -->
<!DOCTYPE svg PUBLIC "-//W3C//DTD SVG 1.1//EN" "http://www.w3.org/Graphics/SVG/1.1/DTD/svg11.dtd">
<svg version="1.1" id="ecommerce_1_" xmlns="http://www.w3.org/2000/svg" xmlns:xlink="http://www.w3.org/1999/xlink" x="0px"
	 y="0px" viewBox="0 0 115 115" style="enable-background:new 0 0 115 115;" xml:space="preserve">
<style type="text/css">
	.st0{fill:#ffffff;}
	.st1{fill:#ffffff;}
	.st2{fill:#ffffff;}
	.st3{fill:#828282;}
	.st4{fill:#ffffff;}
	.st5{fill:none;}
	.st6{fill:#ffffff;}
	.st7{fill:#71A58A;}
	.st8{fill:#ffffff;}
	.st9{fill:#ffffff;}
	.st10{fill:#ffffff;}
	.st11{fill:#ffffff;}
	.st12{fill:#ffffff;}
	.st13{fill:#ffffff;}
	.st14{fill:#ffffff;}
	.st15{fill:#ffffff;}
	.st16{fill:#ffffff;}
	.st17{fill:#ffffff;}
	.st18{fill:#ffffff;}
	.st19{fill:#FFFFFF;}
</style>
<g id="shipment_1_">
	<g>
		<path class="st3" d="M107.564,77.036h-2.43v22.69h6.568V81.173C111.701,78.888,109.849,77.036,107.564,77.036z"/>
	</g>
	<g>
		<path class="st0" d="M59.325,38.666h-43.96c-5.848,0-10.59,4.741-10.59,10.59v41.971c0,5.848,4.741,10.59,10.59,10.59h54.549
			V49.256C69.915,43.407,65.174,38.666,59.325,38.666z"/>
	</g>
	<g>
		<path class="st1" d="M63.482,38.666H14.747c1.54,15.43,18.002,40.721,25.837,40.721c7.23,0,23.943-24.836,25.791-40.301
			C65.452,38.82,64.485,38.666,63.482,38.666z"/>
	</g>
	<g>
		<path class="st4" d="M59.604,38.666H15.087c-5.695,0-10.311,4.869-10.311,10.876v0.32h65.139v-0.32
			C69.915,43.536,65.298,38.666,59.604,38.666z"/>
	</g>
	<g>
		<path class="st7" d="M62.996,38.666H14.747c0.337,3.381,1.392,7.237,2.915,11.195h45.761c1.486-3.77,2.545-7.446,2.943-10.708
			C65.3,38.837,64.169,38.666,62.996,38.666z"/>
	</g>
	<g>
		<path class="st3" d="M99.872,50.538H69.915v51.279h30.249c3.953,0,7.158-3.205,7.158-7.158V57.988
			C107.322,53.874,103.986,50.538,99.872,50.538z"/>
	</g>
	<g>
		<rect x="4.776" y="98.783" class="st4" width="101.194" height="4.851"/>
	</g>
	<g>
		<path class="st4" d="M110.096,89.973h-9.114c-1.794,0-3.248,1.454-3.248,3.248v7.164c0,1.794,1.454,3.248,3.248,3.248h9.114
			c1.794,0,3.248-1.454,3.248-3.248v-7.164C113.344,91.427,111.89,89.973,110.096,89.973z"/>
	</g>
	<g>
		<path class="st4" d="M14.019,89.973H4.904c-1.794,0-3.248,1.454-3.248,3.248v7.164c0,1.794,1.454,3.248,3.248,3.248h9.114
			c1.794,0,3.248-1.454,3.248-3.248v-7.164C17.267,91.427,15.812,89.973,14.019,89.973z"/>
	</g>
	<g>
		<path class="st2" d="M98.344,57.884c-1.936,0-3.424,1.618-3.155,3.43l1.949,13.128c0.221,1.487,1.567,2.593,3.155,2.593h7.029
			V57.884H98.344z"/>
	</g>
	<g>
		<path class="st2" d="M93.523,74.333l-2.074-14.389c-0.17-1.18-1.236-2.06-2.496-2.06H77.727c-1.391,0-2.519,1.066-2.519,2.381
			v14.389c0,1.315,1.128,2.381,2.519,2.381h13.299C92.553,77.036,93.729,75.763,93.523,74.333z"/>
	</g>
	<g>
		<path class="st0" d="M83.888,78.991h-6.77c-0.663,0-1.2,0.537-1.2,1.2c0,0.663,0.537,1.2,1.2,1.2h6.77c0.663,0,1.2-0.537,1.2-1.2
			C85.088,79.528,84.551,78.991,83.888,78.991z"/>
	</g>
	<g>
		<g>
			<path class="st7" d="M44.804,101.638c-1.685-5.429-6.746-9.372-12.729-9.372c-5.983,0-11.045,3.943-12.729,9.372
				c-0.608,1.959,0.914,3.942,2.966,3.942h19.526C43.89,105.58,45.412,103.598,44.804,101.638z"/>
		</g>
		<g>
			<circle class="st2" cx="32.075" cy="105.593" r="9.407"/>
		</g>
		<g>
			<circle class="st0" cx="32.075" cy="105.593" r="3.499"/>
		</g>
	</g>
	<g>
		<g>
			<path class="st7" d="M97.012,101.638c-1.684-5.429-6.746-9.372-12.729-9.372c-5.983,0-11.045,3.943-12.729,9.372
				c-0.608,1.959,0.914,3.942,2.966,3.942h19.526C96.098,105.58,97.62,103.598,97.012,101.638z"/>
		</g>
		<g>
			<circle class="st2" cx="84.283" cy="105.593" r="9.407"/>
		</g>
		<g>
			<circle class="st0" cx="84.283" cy="105.593" r="3.499"/>
		</g>
	</g>
	<g>
		<rect x="5.185" y="60.936" class="st2" width="64.73" height="9.64"/>
	</g>
	<g>
		<rect x="5.185" y="73.637" class="st2" width="64.73" height="4.542"/>
	</g>
	<g>
		<g>
			<path class="st3" d="M42.595,0C27.596,0,15.437,12.222,15.437,27.299s18.556,42.948,27.157,42.948
				c8.009,0,27.157-27.871,27.157-42.948S57.593,0,42.595,0z"/>
		</g>
		<g>
			<ellipse class="st0" cx="42.595" cy="27.748" rx="14.128" ry="14.202"/>
		</g>
	</g>
	<g>
		<rect x="4.776" y="49.862" class="st3" width="4.563" height="40.21"/>
	</g>
</g>
</svg>
