<svg xmlns="http://www.w3.org/2000/svg" xmlns:xlink="http://www.w3.org/1999/xlink" version="1.1" width="256" height="256" viewBox="0 0 256 256" xml:space="preserve">

<defs>
</defs>
<g style="stroke: none; stroke-width: 0; stroke-dasharray: none; stroke-linecap: butt; stroke-linejoin: miter; stroke-miterlimit: 10; fill: #ffffff; fill-rule: nonzero; opacity: 1;" transform="translate(1.4065934065934016 1.4065934065934016) scale(2.81 2.81)" >
	<path d="M 36.333 59.332 c -5.467 0 -9.915 -4.448 -9.915 -9.915 s 4.448 -9.914 9.915 -9.914 c 5.467 0 9.915 4.447 9.915 9.914 S 41.801 59.332 36.333 59.332 z M 36.333 42.503 c -3.813 0 -6.915 3.102 -6.915 6.914 s 3.102 6.915 6.915 6.915 c 3.813 0 6.915 -3.103 6.915 -6.915 S 40.146 42.503 36.333 42.503 z" style="stroke: none; stroke-width: 1; stroke-dasharray: none; stroke-linecap: butt; stroke-linejoin: miter; stroke-miterlimit: 10; fill: #ffffff; fill-rule: nonzero; opacity: 1;" transform=" matrix(1 0 0 1 0 0) " stroke-linecap="round" />
	<path d="M 36.33 53.42 c -0.251 0 -0.514 -0.023 -0.777 -0.08 c -0.252 -0.057 -0.503 -0.125 -0.743 -0.229 c -0.252 -0.103 -0.48 -0.228 -0.698 -0.365 c -0.217 -0.148 -0.422 -0.32 -0.605 -0.503 s -0.354 -0.388 -0.503 -0.606 c -0.137 -0.217 -0.263 -0.445 -0.366 -0.685 c -0.103 -0.251 -0.171 -0.503 -0.228 -0.754 c -0.046 -0.262 -0.08 -0.515 -0.08 -0.777 c 0 -1.051 0.435 -2.092 1.177 -2.835 c 0.926 -0.925 2.309 -1.359 3.612 -1.097 c 0.251 0.058 0.503 0.137 0.743 0.229 c 0.24 0.103 0.48 0.229 0.697 0.377 c 0.217 0.137 0.423 0.309 0.606 0.491 c 0.743 0.743 1.165 1.783 1.165 2.835 c 0 0.262 -0.022 0.515 -0.08 0.777 c -0.046 0.251 -0.126 0.503 -0.228 0.754 c -0.092 0.24 -0.218 0.469 -0.366 0.685 c -0.137 0.218 -0.309 0.423 -0.491 0.606 C 38.421 52.986 37.381 53.42 36.33 53.42 z" style="stroke: none; stroke-width: 1; stroke-dasharray: none; stroke-linecap: butt; stroke-linejoin: miter; stroke-miterlimit: 10; fill: #ffffff; fill-rule: nonzero; opacity: 1;" transform=" matrix(1 0 0 1 0 0) " stroke-linecap="round" />
	<path d="M 88.5 50.917 H 71.167 c -0.828 0 -1.5 -0.672 -1.5 -1.5 s 0.672 -1.5 1.5 -1.5 H 87 v -3.085 c 0 -0.828 0.672 -1.5 1.5 -1.5 s 1.5 0.672 1.5 1.5 v 4.585 C 90 50.245 89.328 50.917 88.5 50.917 z" style="stroke: none; stroke-width: 1; stroke-dasharray: none; stroke-linecap: butt; stroke-linejoin: miter; stroke-miterlimit: 10; fill: #ffffff; fill-rule: nonzero; opacity: 1;" transform=" matrix(1 0 0 1 0 0) " stroke-linecap="round" />
	<path d="M 66.77 30.668 H 5.898 C 2.646 30.668 0 33.314 0 36.566 v 8.454 c 0 3.252 2.646 5.897 5.898 5.897 h 18.626 c -0.062 -0.492 -0.105 -0.991 -0.105 -1.5 c 0 -6.569 5.345 -11.914 11.915 -11.914 s 11.915 5.345 11.915 11.914 c 0 0.509 -0.043 1.008 -0.105 1.5 h 23.024 c 0.828 0 1.5 -0.672 1.5 -1.5 V 36.566 C 72.667 33.314 70.021 30.668 66.77 30.668 z" style="stroke: none; stroke-width: 1; stroke-dasharray: none; stroke-linecap: butt; stroke-linejoin: miter; stroke-miterlimit: 10; fill: #ffffff; fill-rule: nonzero; opacity: 1;" transform=" matrix(1 0 0 1 0 0) " stroke-linecap="round" />
	<path d="M 36.333 59.332 c -5.467 0 -9.915 -4.448 -9.915 -9.915 s 4.448 -9.914 9.915 -9.914 c 5.467 0 9.915 4.447 9.915 9.914 S 41.801 59.332 36.333 59.332 z M 36.333 42.503 c -3.813 0 -6.915 3.102 -6.915 6.914 s 3.102 6.915 6.915 6.915 c 3.813 0 6.915 -3.103 6.915 -6.915 S 40.146 42.503 36.333 42.503 z" style="stroke: none; stroke-width: 1; stroke-dasharray: none; stroke-linecap: butt; stroke-linejoin: miter; stroke-miterlimit: 10; fill: #ffffff; fill-rule: nonzero; opacity: 1;" transform=" matrix(1 0 0 1 0 0) " stroke-linecap="round" />
	<path d="M 36.33 53.42 c -0.251 0 -0.514 -0.023 -0.777 -0.08 c -0.252 -0.057 -0.503 -0.125 -0.743 -0.229 c -0.252 -0.103 -0.48 -0.228 -0.698 -0.365 c -0.217 -0.148 -0.422 -0.32 -0.605 -0.503 s -0.354 -0.388 -0.503 -0.606 c -0.137 -0.217 -0.263 -0.445 -0.366 -0.685 c -0.103 -0.251 -0.171 -0.503 -0.228 -0.754 c -0.046 -0.262 -0.08 -0.515 -0.08 -0.777 c 0 -1.051 0.435 -2.092 1.177 -2.835 c 0.926 -0.925 2.309 -1.359 3.612 -1.097 c 0.251 0.058 0.503 0.137 0.743 0.229 c 0.24 0.103 0.48 0.229 0.697 0.377 c 0.217 0.137 0.423 0.309 0.606 0.491 c 0.743 0.743 1.165 1.783 1.165 2.835 c 0 0.262 -0.022 0.515 -0.08 0.777 c -0.046 0.251 -0.126 0.503 -0.228 0.754 c -0.092 0.24 -0.218 0.469 -0.366 0.685 c -0.137 0.218 -0.309 0.423 -0.491 0.606 C 38.421 52.986 37.381 53.42 36.33 53.42 z" style="stroke: none; stroke-width: 1; stroke-dasharray: none; stroke-linecap: butt; stroke-linejoin: miter; stroke-miterlimit: 10; fill: #ffffff; fill-rule: nonzero; opacity: 1;" transform=" matrix(1 0 0 1 0 0) " stroke-linecap="round" />
	<path d="M 88.5 50.917 H 71.167 c -0.828 0 -1.5 -0.672 -1.5 -1.5 s 0.672 -1.5 1.5 -1.5 H 87 v -3.085 c 0 -0.828 0.672 -1.5 1.5 -1.5 s 1.5 0.672 1.5 1.5 v 4.585 C 90 50.245 89.328 50.917 88.5 50.917 z" style="stroke: none; stroke-width: 1; stroke-dasharray: none; stroke-linecap: butt; stroke-linejoin: miter; stroke-miterlimit: 10; fill: #ffffff; fill-rule: nonzero; opacity: 1;" transform=" matrix(1 0 0 1 0 0) " stroke-linecap="round" />
	<path d="M 66.77 30.668 H 5.898 C 2.646 30.668 0 33.314 0 36.566 v 8.454 c 0 3.252 2.646 5.897 5.898 5.897 h 18.626 c -0.062 -0.492 -0.105 -0.991 -0.105 -1.5 c 0 -6.569 5.345 -11.914 11.915 -11.914 s 11.915 5.345 11.915 11.914 c 0 0.509 -0.043 1.008 -0.105 1.5 h 23.024 c 0.828 0 1.5 -0.672 1.5 -1.5 V 36.566 C 72.667 33.314 70.021 30.668 66.77 30.668 z" style="stroke: none; stroke-width: 1; stroke-dasharray: none; stroke-linecap: butt; stroke-linejoin: miter; stroke-miterlimit: 10; fill: #ffffff; fill-rule: nonzero; opacity: 1;" transform=" matrix(1 0 0 1 0 0) " stroke-linecap="round" />
</g>
</svg>